<svg xmlns="http://www.w3.org/2000/svg" viewBox="0 0 512 512">
  <defs>
    <linearGradient id="bg" x1="0" y1="0" x2="1" y2="1">
      <stop offset="0" stop-color="#1e2148"/>
      <stop offset="1" stop-color="#191c3f"/>
    </linearGradient>
    <linearGradient id="g" x1="0.05" y1="0.2" x2="0.95" y2="0.8">
      <stop offset="0" stop-color="#3aa9ff"/>
      <stop offset="1" stop-color="#45e6b3"/>
    </linearGradient>
  </defs>

  <rect x="36" y="36" width="440" height="440" rx="84" fill="url(#bg)"/>

  <path
    d="M123 170h50c12 0 22 8 25 19l28 109c3 12 13 19 25 19h143c11 0 20-7 24-18l16-48h-82"
    fill="none"
    stroke="url(#g)"
    stroke-width="24"
    stroke-linecap="round"
    stroke-linejoin="round"
  />

  <path
    d="M235 216h176c11 0 20 10 17 21l-10 39H252"
    fill="none"
    stroke="url(#g)"
    stroke-width="24"
    stroke-linecap="round"
    stroke-linejoin="round"
  />

  <path
    d="M166 329h206"
    fill="none"
    stroke="url(#g)"
    stroke-width="24"
    stroke-linecap="round"
  />

  <circle cx="206" cy="382" r="24" fill="url(#g)"/>
  <circle cx="326" cy="382" r="24" fill="url(#g)"/>

  <path
    d="M245 228l31 31 79-79"
    fill="none"
    stroke="url(#g)"
    stroke-width="24"
    stroke-linecap="round"
    stroke-linejoin="round"
  />
</svg>
